<?xml version="1.0" standalone="no"?>
<!DOCTYPE svg PUBLIC "-//W3C//DTD SVG 20010904//EN"
 "http://www.w3.org/TR/2001/REC-SVG-20010904/DTD/svg10.dtd">
<svg version="1.0" xmlns="http://www.w3.org/2000/svg"
 width="1024.000000pt" height="1024.000000pt" viewBox="0 0 1024.000000 1024.000000"
 preserveAspectRatio="xMidYMid meet">
<metadata>
Created by potrace 1.14, written by Peter Selinger 2001-2017
</metadata>
<g transform="translate(0.000000,1024.000000) scale(0.100000,-0.100000)"
fill="#000000" stroke="none">
<path d="M5108 9266 c-1 -2 -52 -6 -113 -10 -200 -11 -348 -37 -519 -92 -118
-38 -135 -44 -271 -110 -369 -178 -732 -534 -933 -916 -71 -135 -159 -379
-177 -493 -3 -16 -8 -41 -10 -55 -11 -56 -14 -72 -22 -137 -10 -85 -10 -424
-1 -521 9 -87 40 -236 69 -336 130 -449 442 -866 857 -1145 188 -126 468 -247
642 -278 14 -2 41 -8 60 -13 19 -5 55 -12 80 -15 25 -3 56 -8 70 -10 92 -15
361 -21 455 -10 22 2 63 7 90 10 46 5 62 7 135 19 299 50 634 205 885 410 336
276 573 614 690 986 27 85 60 224 69 290 4 25 10 68 14 95 15 102 5 576 -13
605 -2 3 -6 23 -9 45 -34 217 -145 501 -272 697 -331 513 -851 867 -1394 949
-36 5 -76 12 -90 14 -14 3 -79 8 -145 11 -66 3 -125 7 -132 9 -6 2 -13 2 -15
1z"/>
<path d="M4350 4594 c0 -8 136 -249 161 -286 11 -15 19 -29 19 -32 0 -3 28
-54 63 -114 35 -60 67 -115 71 -123 4 -8 12 -23 19 -34 7 -11 38 -68 71 -125
32 -58 66 -116 75 -130 31 -45 31 -59 0 -188 -49 -208 -97 -412 -114 -492 -10
-41 -21 -89 -27 -107 -5 -17 -11 -42 -13 -55 -8 -39 -12 -58 -55 -238 -23 -96
-52 -220 -65 -275 -13 -55 -26 -112 -30 -126 -3 -14 -7 -32 -9 -40 -2 -8 -6
-25 -9 -39 -4 -14 -18 -74 -32 -135 -31 -133 -58 -246 -86 -362 -21 -89 -24
-101 -35 -161 -4 -18 -8 -31 -11 -28 -3 2 -29 103 -59 223 -63 252 -59 235
-74 293 -6 25 -15 61 -20 80 -14 57 -17 69 -50 200 -18 69 -33 132 -35 140 -9
43 -156 629 -164 655 -8 26 -55 212 -66 263 -41 184 -309 1219 -317 1223 -6 4
-16 6 -22 4 -6 -2 -45 -6 -86 -9 -41 -4 -84 -8 -95 -10 -11 -2 -46 -7 -78 -10
-33 -4 -71 -12 -85 -17 -15 -6 -28 -10 -30 -9 -5 3 -68 -12 -132 -32 -124 -38
-256 -91 -360 -146 -98 -51 -282 -170 -326 -210 -10 -9 -35 -30 -54 -46 -78
-64 -231 -217 -310 -311 -64 -76 -220 -303 -220 -320 0 -4 -8 -19 -18 -33 -42
-62 -148 -326 -177 -442 -28 -109 -51 -245 -61 -355 -9 -101 -11 -909 -2 -990
19 -167 103 -330 235 -457 126 -120 272 -187 444 -206 95 -10 5849 -8 5909 2
24 4 47 9 51 11 3 2 20 7 38 10 139 24 339 168 435 314 71 108 103 192 124
331 6 42 7 889 1 960 0 8 -5 47 -10 85 -6 39 -12 85 -14 104 -2 18 -7 41 -9
50 -3 9 -8 32 -11 51 -3 19 -17 73 -30 120 -22 76 -35 115 -77 225 -27 70
-122 248 -176 331 -157 238 -391 483 -597 625 -27 19 -52 37 -55 40 -14 17
-212 126 -297 163 -143 63 -325 121 -443 141 -19 3 -42 8 -50 10 -18 5 -79 12
-180 20 -41 3 -84 8 -96 10 -18 4 -23 -7 -48 -110 -15 -63 -28 -118 -28 -122
0 -5 -4 -18 -9 -31 -5 -12 -11 -33 -13 -45 -2 -12 -59 -238 -126 -502 -67
-264 -128 -505 -135 -535 -7 -30 -58 -235 -113 -455 -56 -220 -151 -598 -211
-839 -61 -241 -112 -441 -115 -443 -2 -2 -7 13 -11 34 -3 21 -22 101 -40 178
-46 191 -94 396 -159 675 -65 280 -149 634 -176 745 -25 106 -91 386 -95 405
-2 8 -11 47 -20 86 l-16 72 45 77 c26 42 46 79 46 82 0 3 8 17 19 31 10 15 32
52 48 82 16 30 101 178 187 328 86 150 160 280 163 288 4 12 -100 14 -766 14
-424 0 -771 -3 -771 -6z"/>
</g>
</svg>
